name symmetric_stride_kinematics_HTD_Minus_2.mot
datacolumns 38
datarows 8
range 1.52316621 1.53128976
endheader
                time	/jointset/ground_pelvis/pelvis_tilt/value	/jointset/ground_pelvis/pelvis_list/value	/jointset/ground_pelvis/pelvis_rotation/value	/jointset/ground_pelvis/pelvis_tx/value	/jointset/ground_pelvis/pelvis_ty/value	/jointset/ground_pelvis/pelvis_tz/value	/jointset/hip_r/hip_flexion_r/value	/jointset/hip_r/hip_adduction_r/value	/jointset/hip_r/hip_rotation_r/value	/jointset/knee_r/knee_angle_r/value	/jointset/ankle_r/ankle_angle_r/value	/jointset/subtalar_r/subtalar_angle_r/value	/jointset/mtp_r/mtp_angle_r/value	/jointset/hip_l/hip_flexion_l/value	/jointset/hip_l/hip_adduction_l/value	/jointset/hip_l/hip_rotation_l/value	/jointset/knee_l/knee_angle_l/value	/jointset/ankle_l/ankle_angle_l/value	/jointset/subtalar_l/subtalar_angle_l/value	/jointset/mtp_l/mtp_angle_l/value	/jointset/back/lumbar_extension/value	/jointset/back/lumbar_bending/value	/jointset/back/lumbar_rotation/value	/jointset/acromial_r/arm_flex_r/value	/jointset/acromial_r/arm_add_r/value	/jointset/acromial_r/arm_rot_r/value	/jointset/elbow_r/elbow_flex_r/value	/jointset/radioulnar_r/pro_sup_r/value	/jointset/radius_hand_r/wrist_flex_r/value	/jointset/radius_hand_r/wrist_dev_r/value	/jointset/acromial_l/arm_flex_l/value	/jointset/acromial_l/arm_add_l/value	/jointset/acromial_l/arm_rot_l/value	/jointset/elbow_l/elbow_flex_l/value	/jointset/radioulnar_l/pro_sup_l/value	/jointset/radius_hand_l/wrist_flex_l/value	/jointset/radius_hand_l/wrist_dev_l/value	
          1.52316621	         -9.87101758	         -6.30370822	         13.03286673	         17.75630607	          0.96439179	          0.30801385	         82.66909651	        -10.53787183	          3.43769802	        -93.42049796	          5.67266514	        -12.43929102	         -2.04822899	          2.38559028	        -13.66792309	          7.75885452	        -59.40178945	        -29.06250368	        -13.90109726	         -8.70045276	        -11.16267973	          6.19284211	        -10.86689254	        -74.78845831	          0.62973012	         -0.00004296	         87.34624106	         60.14629026	        -13.43489836	          7.78211398	         86.66176088	         -2.76398768	         -0.00818221	        129.63195937	         73.60044508	         -7.61915128	          7.57000730	
          1.52379599	         -9.88676851	         -6.28215568	         12.93726901	         17.76343495	          0.96466536	          0.30808454	         82.61596219	        -10.53115095	          3.38493810	        -92.66379799	          5.55031357	        -12.30969425	         -2.13190267	          2.36807980	        -13.64195361	          7.74405373	        -59.75554953	        -29.16346640	        -13.73286777	         -8.58170401	        -11.20998168	          6.23118991	        -10.84300816	        -74.72530275	          0.58179894	         -0.00001351	         86.85944978	         60.26935196	        -13.54549606	          7.76539051	         86.55058444	         -2.93445530	         -0.01543990	        129.72514299	         73.54371027	         -7.52094478	          7.55059965	
          1.52578584	         -9.91563628	         -6.21079096	         12.63593516	         17.78593799	          0.96558809	          0.30831380	         82.37665250	        -10.50540820	          3.19977032	        -90.24151277	          5.14067518	        -11.96157587	         -2.40632758	          2.30618025	        -13.55495385	          7.69565477	        -60.87180098	        -29.41071228	        -13.21940894	         -8.22194613	        -11.38970119	          6.35564726	        -10.76637823	        -74.47799248	          0.40703589	         -0.00459973	         85.35096621	         60.67765615	        -13.89494640	          7.70879620	         86.13818200	         -3.51402666	         -0.05594568	        130.04322635	         73.34838100	         -7.21064423	          7.48925288	
          1.52722798	         -9.91337564	         -6.15537229	         12.42096756	         17.80222954	          0.96631436	          0.30848783	         82.13327580	        -10.48420061	          3.04851134	        -88.46143682	          4.82216487	        -11.77985150	         -2.61169796	          2.25214237	        -13.48750568	          7.65976290	        -61.67947730	        -29.52068299	        -12.89079324	         -7.98421915	        -11.55169776	          6.44869685	        -10.71221590	        -74.25703987	          0.25936720	         -0.01754966	         84.29411709	         60.99151381	        -14.14820088	          7.66535377	         85.78231526	         -3.97296178	         -0.09354429	        130.28597696	         73.19073397	         -6.98576511	          7.44482284	
          1.52722798	         -9.91337564	         -6.15537229	         12.42096756	         17.80222954	          0.96631436	          0.30848783	         82.13327580	        -10.48420061	          3.04851134	        -88.46143682	          4.82216487	        -11.77985150	         -2.61169796	          2.25214237	        -13.48750568	          7.65976290	        -61.67947730	        -29.52068299	        -12.89079324	         -7.98421915	        -11.55169776	          6.44869685	        -10.71221590	        -74.25703987	          0.25936720	         -0.01754966	         84.29411709	         60.99151381	        -14.14820088	          7.66535377	         85.78231526	         -3.97296178	         -0.09354429	        130.28597696	         73.19073397	         -6.98576511	          7.44482284	
          1.52785776	         -9.90552663	         -6.13005930	         12.32873986	         17.80934020	          0.96664711	          0.30856653	         82.00814952	        -10.47476125	          2.97810553	        -87.67901354	          4.67752471	        -11.72186977	         -2.70211534	          2.22553136	        -13.45695644	          7.64418617	        -62.03188351	        -29.55053848	        -12.76460086	         -7.88846161	        -11.63145465	          6.49002190	        -10.68963468	        -74.15036916	          0.18956080	         -0.02682908	         83.84388109	         61.13319294	        -14.25879885	          7.64597580	         85.61209267	         -4.18363284	         -0.11028096	        130.39281270	         73.11745634	         -6.88755802	          7.42541834	
          1.52984762	         -9.84991568	         -6.04523193	         12.04685151	         17.83179435	          0.96776257	          0.30882810	         81.53575031	        -10.44585978	          2.73920193	        -85.19284587	          4.20047857	        -11.63032625	         -2.98793056	          2.12690656	        -13.35648693	          7.59689854	        -63.14388267	        -29.58867838	        -12.45818141	         -7.62723726	        -11.92237855	          6.62300472	        -10.62499831	        -73.77739313	         -0.05127125	         -0.07595019	         82.47850719	         61.59812072	        -14.60824798	          7.58459545	         85.01679069	         -4.89023050	         -0.14923067	        130.72071717	         72.86687502	         -6.57725888	          7.36407399	
          1.53128976	         -9.77921374	         -5.97908268	         11.85476718	         17.84805785	          0.96863123	          0.30903237	         81.12100515	        -10.42807239	          2.55156723	        -83.38358593	          3.83863655	        -11.64900652	         -3.18835482	          2.04212175	        -13.28011968	          7.56779111	        -63.94867652	        -29.57965286	        -12.32614038	         -7.48022281	        -12.17052850	          6.72157353	        -10.58777194	        -73.47566291	         -0.24657475	         -0.12836389	         81.54944182	         61.95114288	        -14.86150530	          7.54031397	         84.53147073	         -5.44122701	         -0.15582369	        130.94040432	         72.66644133	         -6.35237672	          7.31963919	
